<?xml version="1.0" encoding="UTF-8"?>
<svg xmlns="http://www.w3.org/2000/svg" xmlns:xlink="http://www.w3.org/1999/xlink" viewBox="0 0 48 48" width="48px" height="48px">
<g id="surface40497706">
<path style=" stroke:none;fill-rule:nonzero;fill:rgb(94.901961%,80.392158%,80.392158%);fill-opacity:1;" d="M 42.164062 24 L 44 22.03125 L 41.816406 20.457031 L 43.230469 18.164062 L 40.78125 17.050781 L 41.722656 14.527344 L 39.101562 13.910156 L 39.535156 11.25 L 36.84375 11.15625 L 36.746094 8.464844 L 34.089844 8.898438 L 33.472656 6.277344 L 30.949219 7.21875 L 29.832031 4.769531 L 27.542969 6.183594 L 25.96875 4 L 24 5.835938 L 22.03125 4 L 20.457031 6.183594 L 18.164062 4.769531 L 17.050781 7.21875 L 14.527344 6.277344 L 13.910156 8.898438 L 11.25 8.464844 L 11.15625 11.15625 L 8.464844 11.253906 L 8.898438 13.910156 L 6.277344 14.527344 L 7.21875 17.050781 L 4.769531 18.167969 L 6.183594 20.457031 L 4 22.03125 L 5.835938 24 L 4 25.96875 L 6.183594 27.542969 L 4.769531 29.832031 L 7.21875 30.949219 L 6.277344 33.472656 L 8.898438 34.089844 L 8.464844 36.75 L 11.15625 36.84375 L 11.253906 39.535156 L 13.910156 39.101562 L 14.527344 41.722656 L 17.050781 40.78125 L 18.167969 43.230469 L 20.457031 41.816406 L 22.03125 44 L 24 42.164062 L 25.96875 44 L 27.542969 41.816406 L 29.832031 43.230469 L 30.949219 40.78125 L 33.472656 41.722656 L 34.089844 39.101562 L 36.75 39.535156 L 36.84375 36.84375 L 39.535156 36.746094 L 39.101562 34.089844 L 41.722656 33.472656 L 40.78125 30.949219 L 43.230469 29.832031 L 41.816406 27.542969 L 44 25.96875 Z M 24 7 C 24.550781 7 25 7.449219 25 8 C 25 8.550781 24.550781 9 24 9 C 23.449219 9 23 8.550781 23 8 C 23 7.449219 23.449219 7 24 7 Z M 9 18 C 9.550781 18 10 18.449219 10 19 C 10 19.550781 9.550781 20 9 20 C 8.449219 20 8 19.550781 8 19 C 8 18.449219 8.449219 18 9 18 Z M 8.808594 29 C 8.289062 27.425781 8 25.746094 8 24 C 8 23.296875 8.0625 22.609375 8.148438 21.929688 L 10.855469 20.476562 C 11.40625 20.183594 11.679688 19.582031 11.59375 19 L 13 19 L 13 29 Z M 15 38 C 14.449219 38 14 37.550781 14 37 C 14 36.449219 14.449219 36 15 36 C 15.550781 36 16 36.449219 16 37 C 16 37.550781 15.550781 38 15 38 Z M 33 38 C 32.449219 38 32 37.550781 32 37 C 32 36.449219 32.449219 36 33 36 C 33.550781 36 34 36.449219 34 37 C 34 37.550781 33.550781 38 33 38 Z M 35.445312 35.171875 L 32.332031 34.675781 C 31.546875 34.550781 30.8125 35.082031 30.6875 35.867188 L 30.226562 38.742188 C 28.3125 39.550781 26.210938 40 24 40 C 21.742188 40 19.601562 39.527344 17.652344 38.6875 L 17.222656 35.992188 C 17.097656 35.210938 16.363281 34.675781 15.578125 34.800781 L 12.644531 35.269531 C 11.953125 34.574219 11.328125 33.8125 10.773438 33 L 23.949219 33 L 23.949219 29 L 20 29 L 20 26 L 22.871094 26 C 28.347656 26 23.859375 33 31.117188 33 L 37.226562 33 C 36.695312 33.777344 36.097656 34.5 35.445312 35.171875 Z M 20.238281 22 L 20.238281 19 L 25.4375 19 C 26.257812 19 26.921875 19.664062 26.921875 20.484375 L 26.921875 20.515625 C 26.921875 21.335938 26.257812 22 25.4375 22 Z M 39.925781 25.4375 L 37.316406 25.4375 L 37.316406 26.667969 C 37.316406 28.039062 36.460938 29 35.472656 29 C 32.925781 29 33.617188 25.464844 30.519531 23.921875 C 32.832031 23.539062 34.601562 21.488281 34.601562 19 C 34.601562 16.238281 32.429688 14 29.753906 14 L 11.519531 14 C 13.792969 11.167969 17.003906 9.125 20.6875 8.347656 L 22.984375 10.644531 C 23.542969 11.207031 24.453125 11.207031 25.015625 10.644531 L 27.3125 8.347656 C 31.953125 9.324219 35.851562 12.308594 38.054688 16.355469 L 36.890625 18.53125 C 36.515625 19.234375 36.777344 20.105469 37.476562 20.476562 L 39.820312 21.730469 C 39.925781 22.476562 40 23.226562 40 24 C 40 24.484375 39.96875 24.960938 39.925781 25.4375 Z M 39 20 C 38.449219 20 38 19.550781 38 19 C 38 18.449219 38.449219 18 39 18 C 39.550781 18 40 18.449219 40 19 C 40 19.550781 39.550781 20 39 20 Z M 39 20 "/>
</g>
</svg>
