<?xml version="1.0" encoding="UTF-8"?>
<svg xmlns="http://www.w3.org/2000/svg" xmlns:xlink="http://www.w3.org/1999/xlink" viewBox="0 0 64 64" width="64px" height="64px">
<g id="surface40418954">
<path style=" stroke:none;fill-rule:nonzero;fill:rgb(94.901961%,80.392158%,80.392158%);fill-opacity:1;" d="M 38.09375 4.984375 C 35.269531 4.984375 32.449219 5.738281 29.960938 7.316406 L 16.917969 15.664062 C 13.578125 17.757812 11.289062 21.160156 10.625 25.007812 C 10.042969 28.277344 10.5625 31.636719 12.085938 34.46875 C 12.261719 34.792969 12.242188 35.1875 12.039062 35.496094 C 10.972656 37.097656 10.273438 38.851562 9.964844 40.703125 C 9.253906 44.640625 10.179688 48.757812 12.496094 52.011719 C 17.398438 59.011719 27.050781 61.101562 34.015625 56.683594 L 47.0625 48.378906 C 50.398438 46.289062 52.6875 42.886719 53.351562 39.042969 C 53.933594 35.769531 53.414062 32.410156 51.890625 29.578125 C 51.714844 29.253906 51.730469 28.859375 51.9375 28.550781 C 53.003906 26.949219 53.703125 25.195312 54.011719 23.34375 C 54.761719 19.367188 53.839844 15.238281 51.484375 11.996094 C 51.480469 11.988281 51.476562 11.984375 51.472656 11.976562 C 48.335938 7.460938 43.214844 4.984375 38.09375 4.984375 Z M 38.09375 4.984375 "/>
<path style=" stroke:none;fill-rule:nonzero;fill:rgb(0%,0%,0%);fill-opacity:1;" d="M 25.925781 60.992188 C 20.171875 60.992188 14.40625 58.222656 10.863281 53.164062 C 8.238281 49.484375 7.191406 44.816406 7.992188 40.363281 C 8.3125 38.429688 9.007812 36.589844 10.054688 34.886719 C 8.527344 31.777344 8.03125 28.167969 8.65625 24.660156 C 9.414062 20.261719 12.035156 16.363281 15.847656 13.976562 L 28.886719 5.628906 C 36.777344 0.621094 47.636719 2.953125 53.109375 10.828125 C 55.78125 14.515625 56.828125 19.199219 55.980469 23.691406 C 55.660156 25.613281 54.96875 27.457031 53.921875 29.15625 C 55.445312 32.269531 55.945312 35.875 55.320312 39.386719 C 54.5625 43.785156 51.941406 47.679688 48.128906 50.070312 L 35.085938 58.367188 C 32.289062 60.144531 29.109375 60.992188 25.925781 60.992188 Z M 38.09375 4.984375 C 35.269531 4.984375 32.449219 5.738281 29.960938 7.316406 L 16.917969 15.664062 C 13.578125 17.757812 11.289062 21.160156 10.625 25.007812 C 10.042969 28.277344 10.5625 31.636719 12.085938 34.46875 C 12.261719 34.792969 12.242188 35.1875 12.039062 35.496094 C 10.972656 37.097656 10.273438 38.851562 9.964844 40.703125 C 9.253906 44.640625 10.179688 48.757812 12.496094 52.011719 C 17.398438 59.011719 27.050781 61.101562 34.015625 56.683594 L 47.0625 48.378906 C 50.398438 46.289062 52.6875 42.886719 53.351562 39.042969 C 53.933594 35.769531 53.414062 32.410156 51.890625 29.578125 C 51.714844 29.253906 51.730469 28.859375 51.9375 28.550781 C 53.003906 26.949219 53.703125 25.195312 54.011719 23.34375 C 54.761719 19.367188 53.839844 15.238281 51.484375 11.996094 C 51.480469 11.988281 51.476562 11.984375 51.472656 11.976562 C 48.335938 7.460938 43.214844 4.984375 38.09375 4.984375 Z M 25.722656 54.570312 C 22.015625 54.570312 18.453125 52.773438 16.289062 49.652344 C 14.625 47.363281 13.96875 44.496094 14.453125 41.597656 L 14.75 40.300781 L 15.011719 39.453125 C 15.105469 39.144531 15.34375 38.90625 15.644531 38.804688 C 15.949219 38.703125 16.285156 38.75 16.546875 38.9375 L 17.214844 39.417969 C 18.703125 40.5 20.34375 41.320312 22.097656 41.859375 L 22.566406 42 C 23.027344 42.136719 23.324219 42.582031 23.277344 43.058594 L 23.226562 43.535156 C 23.199219 43.957031 23.332031 44.457031 23.589844 44.84375 C 24.117188 45.601562 25.027344 45.949219 25.90625 45.722656 C 26.082031 45.660156 26.308594 45.585938 26.453125 45.5 L 39.542969 37.140625 C 39.980469 36.859375 40.25 36.46875 40.34375 35.980469 C 40.433594 35.492188 40.316406 34.953125 40.023438 34.53125 C 39.507812 33.789062 38.59375 33.457031 37.699219 33.6875 C 37.523438 33.75 37.296875 33.824219 37.148438 33.910156 L 32.148438 37.101562 C 31.261719 37.675781 30.257812 38.109375 29.175781 38.378906 C 24.5625 39.570312 19.632812 37.738281 16.910156 33.816406 C 15.261719 31.472656 14.609375 28.527344 15.121094 25.742188 C 15.597656 23.011719 17.304688 20.484375 19.691406 19 L 32.84375 10.628906 C 33.679688 10.089844 34.640625 9.660156 35.773438 9.320312 C 40.429688 8.117188 45.359375 9.945312 48.078125 13.871094 C 49.742188 16.160156 50.402344 19.027344 49.917969 21.925781 C 49.914062 21.945312 49.910156 21.960938 49.90625 21.980469 C 49.820312 22.378906 49.714844 22.816406 49.546875 23.324219 L 49.3125 24.070312 C 49.21875 24.378906 48.980469 24.617188 48.675781 24.71875 C 48.375 24.820312 48.039062 24.773438 47.777344 24.585938 L 47.109375 24.105469 C 45.617188 23.023438 43.980469 22.203125 42.226562 21.664062 L 41.753906 21.523438 C 41.296875 21.386719 41 20.941406 41.046875 20.464844 L 41.09375 19.984375 C 41.125 19.566406 40.988281 19.066406 40.730469 18.679688 C 40.222656 17.949219 39.308594 17.613281 38.417969 17.847656 C 38.242188 17.910156 38.011719 17.984375 37.867188 18.070312 L 24.78125 26.429688 C 24.34375 26.714844 24.070312 27.105469 23.980469 27.589844 C 23.890625 28.078125 24.007812 28.617188 24.300781 29.039062 C 24.816406 29.78125 25.730469 30.113281 26.621094 29.882812 C 26.800781 29.820312 27.027344 29.746094 27.171875 29.660156 L 32.175781 26.46875 C 33.011719 25.925781 33.96875 25.496094 35.105469 25.15625 C 39.761719 23.953125 44.691406 25.785156 47.410156 29.707031 C 49.074219 31.996094 49.734375 34.863281 49.25 37.761719 C 48.773438 40.515625 47.066406 43.039062 44.675781 44.523438 L 31.527344 52.894531 C 30.691406 53.433594 29.730469 53.863281 28.597656 54.203125 C 27.644531 54.449219 26.679688 54.570312 25.722656 54.570312 Z M 16.550781 41.394531 L 16.414062 41.980469 C 16.03125 44.292969 16.5625 46.625 17.921875 48.496094 C 20.179688 51.753906 24.25 53.261719 28.058594 52.277344 C 28.972656 52.003906 29.765625 51.652344 30.445312 51.210938 L 43.613281 42.832031 C 45.53125 41.640625 46.898438 39.621094 47.28125 37.429688 C 47.675781 35.070312 47.140625 32.738281 45.78125 30.867188 C 43.523438 27.609375 39.457031 26.101562 35.644531 27.082031 C 34.730469 27.359375 33.9375 27.710938 33.257812 28.152344 L 28.226562 31.359375 C 27.871094 31.574219 27.511719 31.695312 27.191406 31.800781 C 25.410156 32.265625 23.660156 31.617188 22.65625 30.179688 C 22.058594 29.316406 21.824219 28.238281 22.015625 27.222656 C 22.210938 26.1875 22.792969 25.332031 23.703125 24.746094 L 36.816406 16.371094 C 37.175781 16.15625 37.535156 16.035156 37.851562 15.929688 C 39.628906 15.464844 41.382812 16.113281 42.386719 17.550781 C 42.839844 18.234375 43.089844 19.046875 43.097656 19.839844 C 44.777344 20.386719 46.359375 21.164062 47.8125 22.152344 C 47.863281 21.960938 47.90625 21.769531 47.953125 21.570312 C 48.339844 19.214844 47.804688 16.890625 46.453125 15.027344 C 44.195312 11.773438 40.125 10.257812 36.3125 11.242188 C 35.398438 11.519531 34.605469 11.871094 33.925781 12.3125 L 20.761719 20.6875 C 18.839844 21.882812 17.472656 23.902344 17.09375 26.09375 C 16.671875 28.363281 17.203125 30.757812 18.550781 32.667969 C 20.800781 35.910156 24.867188 37.425781 28.683594 36.4375 C 29.5625 36.21875 30.359375 35.875 31.066406 35.417969 L 36.097656 32.207031 C 36.453125 31.992188 36.816406 31.871094 37.132812 31.769531 C 38.910156 31.300781 40.664062 31.949219 41.667969 33.390625 C 42.265625 34.253906 42.5 35.328125 42.308594 36.347656 C 42.113281 37.378906 41.53125 38.238281 40.621094 38.820312 L 27.507812 47.195312 C 27.152344 47.410156 26.789062 47.53125 26.472656 47.636719 C 24.710938 48.101562 22.957031 47.433594 21.9375 45.96875 C 21.484375 45.285156 21.234375 44.472656 21.226562 43.679688 C 19.5625 43.140625 17.992188 42.371094 16.550781 41.394531 Z M 16.550781 41.394531 "/>
<path style=" stroke:none;fill-rule:nonzero;fill:rgb(94.901961%,80.392158%,80.392158%);fill-opacity:1;" d="M 16.550781 41.394531 L 16.414062 41.980469 C 16.03125 44.292969 16.5625 46.625 17.921875 48.496094 C 20.179688 51.753906 24.25 53.261719 28.058594 52.277344 C 28.972656 52.003906 29.765625 51.652344 30.445312 51.210938 L 43.613281 42.832031 C 45.53125 41.640625 46.898438 39.621094 47.28125 37.429688 C 47.675781 35.070312 47.140625 32.738281 45.78125 30.867188 C 43.523438 27.609375 39.457031 26.101562 35.644531 27.082031 C 34.730469 27.359375 33.9375 27.710938 33.257812 28.152344 L 28.226562 31.359375 C 27.871094 31.574219 27.511719 31.695312 27.191406 31.800781 C 25.410156 32.265625 23.660156 31.617188 22.65625 30.179688 C 22.058594 29.316406 21.824219 28.238281 22.015625 27.222656 C 22.210938 26.1875 22.792969 25.332031 23.703125 24.746094 L 36.816406 16.371094 C 37.175781 16.15625 37.535156 16.035156 37.851562 15.929688 C 39.628906 15.464844 41.382812 16.113281 42.386719 17.550781 C 42.839844 18.234375 43.089844 19.046875 43.097656 19.839844 C 44.777344 20.386719 46.359375 21.164062 47.8125 22.152344 C 47.863281 21.960938 47.90625 21.769531 47.953125 21.570312 C 48.339844 19.214844 47.804688 16.890625 46.453125 15.027344 C 44.195312 11.773438 40.125 10.257812 36.3125 11.242188 C 35.398438 11.519531 34.605469 11.871094 33.925781 12.3125 L 20.761719 20.6875 C 18.839844 21.882812 17.472656 23.902344 17.09375 26.09375 C 16.671875 28.363281 17.203125 30.757812 18.550781 32.667969 C 20.800781 35.910156 24.867188 37.425781 28.683594 36.4375 C 29.5625 36.21875 30.359375 35.875 31.066406 35.417969 L 36.097656 32.207031 C 36.453125 31.992188 36.816406 31.871094 37.132812 31.769531 C 38.910156 31.300781 40.664062 31.949219 41.667969 33.390625 C 42.265625 34.253906 42.5 35.328125 42.308594 36.347656 C 42.113281 37.378906 41.53125 38.238281 40.621094 38.820312 L 27.507812 47.195312 C 27.152344 47.410156 26.789062 47.53125 26.472656 47.636719 C 24.710938 48.101562 22.957031 47.433594 21.9375 45.96875 C 21.484375 45.285156 21.234375 44.472656 21.226562 43.679688 C 19.5625 43.140625 17.992188 42.371094 16.550781 41.394531 Z M 16.550781 41.394531 "/>
<path style=" stroke:none;fill-rule:nonzero;fill:rgb(0%,0%,0%);fill-opacity:1;" d="M 10.796875 14.835938 C 10.328125 15.140625 9.703125 15.011719 9.402344 14.546875 L 8.316406 12.867188 C 8.015625 12.402344 8.152344 11.78125 8.625 11.476562 C 9.09375 11.171875 9.71875 11.304688 10.015625 11.765625 L 11.105469 13.445312 C 11.402344 13.910156 11.265625 14.53125 10.796875 14.835938 Z M 10.796875 14.835938 "/>
<path style=" stroke:none;fill-rule:nonzero;fill:rgb(0%,0%,0%);fill-opacity:1;" d="M 15.046875 12.085938 C 14.578125 12.390625 13.953125 12.261719 13.652344 11.796875 L 12.566406 10.117188 C 12.265625 9.652344 12.402344 9.03125 12.875 8.726562 C 13.34375 8.421875 13.96875 8.554688 14.265625 9.015625 L 15.355469 10.695312 C 15.652344 11.160156 15.515625 11.78125 15.046875 12.085938 Z M 15.046875 12.085938 "/>
<path style=" stroke:none;fill-rule:nonzero;fill:rgb(0%,0%,0%);fill-opacity:1;" d="M 19.296875 9.335938 C 18.828125 9.640625 18.203125 9.511719 17.902344 9.046875 L 16.816406 7.367188 C 16.515625 6.902344 16.652344 6.28125 17.125 5.976562 C 17.59375 5.671875 18.21875 5.804688 18.515625 6.265625 L 19.605469 7.945312 C 19.902344 8.410156 19.765625 9.03125 19.296875 9.335938 Z M 19.296875 9.335938 "/>
<path style=" stroke:none;fill-rule:nonzero;fill:rgb(0%,0%,0%);fill-opacity:1;" d="M 23.546875 6.585938 C 23.078125 6.890625 22.453125 6.761719 22.152344 6.296875 L 21.066406 4.617188 C 20.765625 4.152344 20.902344 3.53125 21.375 3.226562 C 21.84375 2.921875 22.46875 3.054688 22.765625 3.515625 L 23.855469 5.195312 C 24.152344 5.660156 24.015625 6.28125 23.546875 6.585938 Z M 23.546875 6.585938 "/>
<path style=" stroke:none;fill-rule:nonzero;fill:rgb(0%,0%,0%);fill-opacity:1;" d="M 42.640625 60.835938 C 42.171875 61.140625 41.546875 61.011719 41.246094 60.546875 L 40.160156 58.867188 C 39.859375 58.402344 39.996094 57.78125 40.464844 57.476562 C 40.933594 57.171875 41.558594 57.304688 41.859375 57.765625 L 42.945312 59.445312 C 43.246094 59.910156 43.109375 60.53125 42.640625 60.835938 Z M 42.640625 60.835938 "/>
<path style=" stroke:none;fill-rule:nonzero;fill:rgb(0%,0%,0%);fill-opacity:1;" d="M 46.890625 58.085938 C 46.421875 58.390625 45.796875 58.261719 45.496094 57.796875 L 44.410156 56.117188 C 44.109375 55.652344 44.246094 55.03125 44.714844 54.726562 C 45.183594 54.421875 45.808594 54.554688 46.109375 55.015625 L 47.195312 56.695312 C 47.496094 57.160156 47.359375 57.78125 46.890625 58.085938 Z M 46.890625 58.085938 "/>
<path style=" stroke:none;fill-rule:nonzero;fill:rgb(0%,0%,0%);fill-opacity:1;" d="M 51.140625 55.335938 C 50.671875 55.640625 50.046875 55.511719 49.746094 55.046875 L 48.660156 53.367188 C 48.359375 52.902344 48.496094 52.28125 48.964844 51.976562 C 49.433594 51.671875 50.058594 51.804688 50.359375 52.265625 L 51.445312 53.945312 C 51.746094 54.410156 51.609375 55.03125 51.140625 55.335938 Z M 51.140625 55.335938 "/>
<path style=" stroke:none;fill-rule:nonzero;fill:rgb(0%,0%,0%);fill-opacity:1;" d="M 55.390625 52.585938 C 54.921875 52.890625 54.296875 52.761719 53.996094 52.296875 L 52.910156 50.617188 C 52.609375 50.152344 52.746094 49.53125 53.214844 49.226562 C 53.683594 48.921875 54.308594 49.054688 54.609375 49.515625 L 55.695312 51.195312 C 55.996094 51.660156 55.859375 52.28125 55.390625 52.585938 Z M 55.390625 52.585938 "/>
</g>
</svg>
